P2
#imagem2.pgm
100 100
255
191 52 3 101 34 155 70 174 240 109 211 75 106 55 110 106 82 122 207 80 199 80 37 107 97 16 70 61 63 58 104 209 106 206 210 188 191 198 78 202 32 235 229 89 52 181 43 22 13 235 142 135 205 185 9 158 73 110 30 71 170 15 244 159 18 7 23 85 206 147 16 217 25 168 112 98 99 131 128 94 187 32 34 105 205 56 163 223 248 29 137 138 20 120 152 29 194 79 150 118 
144 93 25 211 150 16 79 241 117 197 34 202 104 27 156 228 37 214 107 103 231 89 111 114 210 141 176 83 130 191 45 46 121 228 74 49 72 50 241 214 156 133 21 230 17 6 162 166 226 8 44 242 254 6 200 176 244 73 110 208 199 17 200 207 52 77 218 114 210 194 221 164 192 45 181 194 37 173 109 38 202 33 133 194 28 40 37 60 57 10 213 167 252 163 109 241 158 156 211 25 
79 25 43 178 250 143 178 241 10 132 74 25 211 218 236 26 145 107 38 202 21 145 65 108 1 250 52 236 73 64 146 44 199 51 133 155 153 221 142 139 26 29 27 124 41 83 40 194 165 27 130 93 48 134 91 185 39 187 196 224 121 133 73 181 189 46 46 190 33 52 160 170 160 50 212 16 43 139 84 137 146 42 3 50 104 115 38 171 182 179 97 46 170 34 126 197 164 79 247 190 
198 139 18 112 222 32 1 89 109 232 96 63 134 47 9 79 77 71 246 229 233 207 92 124 135 44 138 109 228 127 203 4 116 198 227 0 139 102 60 31 55 53 17 183 161 100 131 253 164 83 117 140 112 162 28 52 116 158 156 196 218 72 166 183 74 169 102 128 205 172 183 109 131 158 124 76 251 165 122 76 100 78 30 201 236 228 29 133 5 216 181 229 84 219 152 75 25 92 66 158 
194 185 186 22 3 52 144 217 32 119 136 137 187 83 194 76 119 112 110 225 131 159 171 238 24 12 197 239 104 234 240 9 124 123 155 171 152 236 139 64 137 126 217 76 138 223 9 68 153 68 179 254 109 153 41 131 220 210 101 30 114 70 67 115 127 2 201 6 219 162 129 227 44 3 179 236 227 87 231 230 84 3 35 87 244 209 42 73 206 75 70 145 38 66 89 22 196 130 197 194 
151 146 218 46 109 245 233 137 18 126 171 112 152 243 136 40 126 56 129 235 142 180 197 71 165 24 171 44 58 86 164 192 76 92 209 12 167 103 104 129 145 129 119 27 78 2 194 244 163 33 85 153 174 242 217 132 72 227 5 245 191 249 143 37 45 135 248 109 168 14 44 251 17 110 189 44 80 59 70 3 177 65 31 132 57 15 137 78 150 37 4 182 170 142 196 88 162 252 49 199 
178 194 199 225 246 54 200 230 237 211 25 93 44 181 172 99 168 52 115 241 81 194 155 181 195 88 21 5 198 136 51 146 250 132 226 222 218 49 53 21 106 162 215 208 70 253 158 113 236 178 69 252 106 2 17 63 200 66 100 156 105 221 12 203 172 116 181 100 10 25 115 5 124 161 48 112 106 253 108 109 234 125 197 195 7 144 128 162 233 86 47 82 15 145 26 115 228 216 16 42 
132 139 200 136 78 111 230 19 182 123 96 153 122 174 75 219 131 128 89 178 204 71 127 159 109 156 17 14 55 27 83 37 126 12 204 116 0 208 82 209 123 163 21 188 103 127 65 162 237 67 92 200 138 233 247 191 242 92 248 163 40 201 246 150 96 128 237 163 165 170 221 11 63 4 127 160 113 208 43 54 135 179 162 64 48 54 78 178 187 19 47 66 49 151 3 252 72 51 107 114 
67 137 8 224 187 145 100 149 205 166 154 248 200 13 149 119 189 74 75 60 30 229 96 249 193 216 152 30 5 210 218 67 213 155 102 57 93 163 220 237 163 169 58 19 91 238 115 82 169 230 203 229 32 93 147 222 187 136 231 131 156 114 36 250 76 50 157 190 70 244 87 254 142 36 195 238 29 223 80 186 92 238 65 123 252 103 31 11 116 194 56 122 69 134 6 132 138 71 235 95 
204 163 149 163 32 8 136 188 33 71 146 152 50 110 177 12 165 86 173 154 54 203 99 147 237 106 143 77 229 243 157 205 247 54 173 188 90 103 108 111 46 240 244 95 125 16 54 236 188 221 64 171 191 8 214 164 182 221 165 197 169 119 150 127 136 18 8 42 182 123 105 188 63 141 5 127 129 165 123 182 26 24 170 103 66 2 23 197 114 129 2 228 22 52 80 47 109 130 100 212 
33 31 10 160 129 50 167 242 122 163 194 195 73 131 21 242 227 231 56 212 171 220 176 35 219 177 83 217 78 56 83 164 248 83 238 218 88 86 19 180 145 163 226 180 137 128 122 124 62 11 229 242 30 217 18 127 165 154 65 194 3 70 186 139 146 59 76 238 89 214 81 68 106 97 194 110 205 83 42 52 224 96 221 133 185 70 92 122 138 189 203 111 25 162 84 249 54 157 107 34 
208 244 64 164 152 190 97 153 63 167 200 79 76 4 241 181 36 213 23 154 156 142 185 170 211 41 174 102 31 104 40 129 60 83 149 93 165 65 79 160 56 10 78 5 247 50 10 239 180 30 159 104 93 36 104 3 39 155 42 78 254 170 113 218 205 123 85 124 143 143 49 53 72 235 6 20 76 206 158 228 121 153 38 114 195 183 197 73 189 26 125 44 247 153 76 66 236 90 220 142 
70 120 194 74 178 34 16 59 40 220 190 140 177 166 176 75 187 169 85 147 242 45 178 133 35 11 209 15 51 62 88 42 175 236 78 25 112 102 95 64 93 8 140 28 209 8 22 134 163 252 173 188 90 193 39 224 12 123 46 91 111 94 203 228 162 0 182 29 171 213 189 235 50 30 190 148 3 99 132 63 78 87 123 227 58 38 140 72 178 11 33 7 37 80 13 90 238 109 113 23 
196 114 68 10 224 16 158 180 34 68 124 18 4 133 125 233 9 12 105 74 140 126 126 180 10 19 73 43 212 15 134 11 206 161 100 108 22 245 140 129 190 151 83 34 126 243 6 244 246 14 22 248 127 60 174 75 8 133 124 250 135 231 21 64 17 44 225 102 245 135 247 197 158 50 49 19 236 56 253 112 100 165 192 235 104 81 47 247 63 108 250 240 50 156 204 68 7 192 83 81 
149 163 232 141 184 199 18 144 242 135 95 9 103 178 108 62 152 108 143 167 128 238 107 57 240 245 115 229 224 238 38 137 253 75 249 42 58 243 200 199 39 61 185 176 73 119 237 141 82 99 243 14 210 155 200 130 85 223 98 58 2 173 25 112 174 38 87 49 5 181 247 232 148 88 176 158 7 29 110 252 205 171 148 35 240 98 96 129 100 107 135 152 1 85 191 106 25 252 70 250 
43 109 153 171 58 123 250 77 210 174 237 178 56 99 62 161 74 150 87 237 22 206 98 30 43 36 2 95 35 188 154 37 246 100 122 199 139 109 101 249 18 155 187 217 49 201 80 8 0 113 34 130 215 98 138 43 126 58 156 188 39 121 191 144 101 66 58 124 238 153 204 39 94 54 254 160 75 66 64 153 233 16 13 126 12 163 167 98 174 31 159 114 242 231 179 226 164 151 207 10 
192 142 38 154 133 182 176 186 17 212 21 95 144 240 182 39 6 50 119 45 164 186 108 245 72 225 8 6 27 86 2 55 78 254 248 222 9 183 31 94 123 173 107 162 181 121 144 195 144 210 74 182 122 217 188 63 93 101 228 37 224 211 110 77 91 66 94 194 29 186 108 69 126 156 243 241 72 242 99 31 229 111 135 112 127 175 28 203 220 20 3 177 67 75 6 26 31 84 9 214 
44 160 141 47 249 21 243 34 240 135 200 137 185 21 166 13 183 80 105 27 227 180 49 99 65 218 140 111 68 81 57 241 84 50 204 94 200 175 193 73 137 73 175 213 176 115 55 133 219 181 217 51 133 49 209 175 16 132 28 34 106 254 71 175 230 27 199 25 54 167 201 67 160 45 218 93 225 97 87 22 213 61 243 28 70 22 218 87 24 175 160 140 163 66 31 107 104 106 112 42 
129 93 14 47 121 11 96 250 220 85 61 190 70 41 20 225 33 22 86 216 118 38 91 12 247 39 191 74 147 18 12 97 223 213 161 239 137 157 45 13 34 110 52 68 254 156 233 150 5 134 227 249 250 22 224 130 225 91 60 48 212 235 181 143 248 182 172 172 251 135 253 121 164 108 23 45 138 162 249 204 210 99 52 68 43 146 154 212 80 179 59 199 79 177 89 140 231 205 107 80 
174 204 102 165 79 51 217 199 33 167 27 31 96 199 14 133 189 18 67 237 38 165 120 0 214 131 58 51 62 9 47 138 53 212 77 253 126 78 126 34 52 254 120 41 247 247 76 77 34 237 109 187 59 204 67 10 245 227 109 97 254 126 90 78 85 236 236 243 132 232 160 18 230 219 19 12 87 216 219 114 245 228 253 173 218 103 0 221 233 187 92 122 162 100 231 210 138 196 211 248 
37 84 235 46 144 89 190 236 49 115 65 140 143 27 45 187 66 216 163 178 37 85 70 227 21 151 225 18 130 113 230 5 25 5 36 84 61 115 162 242 172 246 144 249 118 21 8 221 38 39 187 136 75 97 59 10 54 24 232 204 31 234 90 148 142 148 155 36 44 140 58 75 96 53 244 218 230 188 111 146 172 126 229 34 55 113 161 90 217 137 50 6 247 141 185 167 164 63 61 128 
80 232 86 40 221 163 45 149 209 98 23 91 240 45 214 5 117 125 52 199 200 51 6 4 215 153 100 64 114 102 134 146 81 179 26 187 164 219 10 210 220 183 9 62 130 165 212 122 73 97 254 200 189 2 191 210 60 52 12 103 1 142 136 70 139 121 125 65 45 156 243 254 96 210 33 195 100 0 187 17 166 93 101 215 234 5 79 192 216 102 185 167 76 225 231 204 15 171 203 115 
95 198 99 75 230 45 145 123 141 246 121 155 55 146 28 244 241 112 58 225 18 26 197 18 69 43 221 153 29 31 38 19 153 97 103 173 51 166 221 244 103 231 19 48 89 10 173 33 108 28 24 13 5 162 223 184 81 93 184 99 175 141 253 101 46 149 162 223 56 129 94 198 83 87 159 40 30 47 119 100 101 4 22 220 127 177 11 52 201 139 216 41 239 21 30 179 100 49 202 94 
32 227 193 139 36 234 200 34 202 81 43 72 93 73 115 176 130 225 156 32 250 112 52 168 190 181 159 73 243 167 169 105 196 216 7 222 158 111 207 128 217 162 78 219 200 45 4 172 198 174 66 29 166 230 211 231 176 86 115 247 140 12 31 134 185 77 130 100 0 81 135 232 119 60 60 178 143 25 49 181 180 246 120 76 129 241 84 45 11 63 220 19 207 155 155 127 66 148 95 65 
246 165 213 197 6 25 160 97 140 26 246 249 109 2 146 87 179 53 103 132 203 31 244 244 211 49 166 225 214 100 153 158 37 34 55 197 27 151 126 4 145 221 229 102 65 246 183 105 220 248 211 65 31 133 38 120 34 208 90 252 163 89 128 41 163 34 59 218 254 124 171 185 97 58 161 174 182 225 98 50 11 44 239 115 107 233 176 127 185 158 227 103 9 110 185 20 251 164 132 58 
50 236 80 35 52 165 98 201 9 179 96 101 69 94 171 118 72 163 40 238 139 102 8 250 29 137 190 149 46 203 202 221 98 247 108 233 55 60 245 243 167 64 87 186 131 68 7 228 254 114 244 46 253 21 26 83 166 237 219 101 44 95 88 7 247 10 81 54 9 190 186 43 179 64 186 109 179 183 23 158 17 244 210 42 235 188 6 209 162 72 176 194 221 201 13 52 139 119 163 55 
61 17 165 50 5 207 87 61 53 180 6 72 177 178 80 213 162 18 74 156 193 166 52 237 157 153 220 45 233 247 94 159 93 58 63 146 164 239 75 237 95 221 144 75 71 21 83 161 99 240 119 28 232 121 173 46 59 130 78 251 22 38 77 167 228 102 35 20 209 133 9 199 121 117 8 209 110 104 145 138 228 214 182 125 177 153 58 204 248 91 125 237 68 3 149 135 195 101 2 73 
254 214 88 21 65 101 81 204 118 93 150 138 82 101 191 49 101 192 202 22 142 31 24 150 95 239 169 126 222 171 33 3 210 19 83 166 103 60 230 112 226 139 196 34 199 225 225 237 135 13 35 219 166 235 99 203 3 181 85 81 13 208 87 216 40 199 232 208 17 168 212 53 107 107 78 87 89 182 254 44 202 128 94 117 96 5 53 166 2 254 181 67 26 144 17 38 12 235 219 232 
215 0 61 87 250 90 58 178 138 113 142 169 153 2 230 187 206 209 248 7 98 219 188 34 198 203 207 11 67 213 194 203 199 188 212 213 49 154 228 64 87 68 152 101 14 219 126 12 248 93 173 13 219 62 175 59 71 132 39 232 194 67 136 89 98 122 101 244 98 79 254 16 46 6 62 167 123 189 58 72 217 212 104 160 221 0 169 96 67 228 62 104 53 212 107 117 29 121 202 62 
21 131 139 57 110 174 47 246 99 183 130 86 96 141 78 106 9 91 23 105 86 54 210 115 121 140 127 7 224 32 247 252 134 164 225 209 112 94 51 162 1 65 147 31 239 124 29 217 51 238 185 176 18 107 180 58 34 86 170 250 137 118 241 193 35 4 47 246 126 84 164 185 190 181 0 16 222 189 161 33 101 190 167 21 248 149 199 48 118 251 168 190 232 42 209 96 145 86 113 202 
84 121 239 145 62 81 170 28 248 142 190 53 93 178 203 248 131 110 133 138 111 47 7 72 196 11 196 113 168 54 125 239 166 213 154 197 212 184 204 184 251 84 238 81 140 21 225 66 158 81 248 197 60 4 40 141 212 15 139 207 241 31 123 145 26 150 183 49 9 112 242 94 156 20 58 114 25 22 126 93 168 189 194 33 191 114 68 11 199 205 124 156 47 244 229 216 199 143 115 117 
152 228 127 12 1 122 194 92 219 200 132 55 118 88 151 32 143 88 101 65 189 133 0 60 210 251 14 121 191 181 11 247 116 99 37 66 69 84 185 147 99 37 46 67 207 104 63 136 119 243 234 50 202 22 20 214 133 92 150 39 130 35 81 97 63 29 238 8 246 149 230 99 238 6 11 248 113 218 23 230 117 106 135 102 248 5 201 87 161 37 119 26 135 149 45 160 212 170 183 229 
153 212 37 89 119 171 251 81 11 62 13 137 60 196 64 232 69 124 69 239 54 199 252 16 54 111 151 227 62 133 175 233 163 205 101 73 35 183 54 76 65 71 39 4 49 239 241 74 160 70 193 146 9 152 198 200 112 181 159 162 189 12 94 164 129 221 41 70 81 179 195 107 170 77 125 173 239 58 74 29 239 85 11 248 143 81 199 9 132 147 103 149 199 128 154 173 17 9 8 44 
19 9 3 182 211 205 188 33 199 90 77 249 13 63 3 158 245 16 200 152 59 85 165 58 133 137 145 157 165 246 46 26 173 9 37 55 61 102 164 61 57 102 208 252 195 186 31 68 27 85 101 198 204 237 163 79 81 49 195 18 7 112 90 112 154 101 175 252 218 219 9 39 124 93 254 68 213 39 103 237 148 7 13 224 231 242 65 93 62 102 134 45 111 102 95 86 136 182 252 153 
148 151 82 194 250 30 87 115 120 131 123 226 167 111 4 190 47 31 238 171 15 251 129 148 141 107 38 54 216 120 187 165 197 35 253 190 212 109 46 180 211 244 138 48 80 185 98 181 183 78 179 199 61 166 179 113 6 53 167 189 159 9 234 184 64 48 27 135 218 115 39 176 133 69 218 165 191 248 18 165 139 5 170 130 244 2 107 240 236 158 116 221 39 172 99 115 70 17 206 208 
20 59 63 25 158 97 69 87 215 162 84 236 169 231 0 112 22 13 206 197 81 40 48 206 109 10 205 248 16 63 207 19 187 56 69 160 35 89 183 157 48 142 188 240 131 191 248 109 182 168 214 165 46 115 144 10 163 45 166 110 202 213 236 9 62 189 90 126 15 98 50 148 21 124 179 27 126 124 232 147 30 156 207 73 121 72 99 204 47 5 65 0 22 21 4 176 193 3 118 111 
203 85 203 29 133 139 116 87 245 47 60 69 73 146 218 111 25 17 133 27 169 101 194 91 132 223 10 77 25 164 228 178 60 47 44 217 53 194 141 22 54 141 239 40 232 152 235 88 104 93 107 184 96 133 165 51 159 63 136 231 81 36 67 139 53 144 145 179 12 139 100 204 4 113 150 163 224 34 76 75 53 94 156 177 85 128 55 189 99 95 153 73 167 100 133 193 127 64 203 215 
164 50 48 242 18 89 87 231 74 5 152 17 68 108 178 84 189 87 152 182 63 15 238 3 15 48 240 162 216 36 194 52 206 232 125 6 13 229 107 226 240 123 66 119 76 129 95 49 3 234 65 220 152 194 205 102 46 177 33 122 113 202 109 254 143 67 43 135 17 94 161 203 214 36 14 79 118 62 100 31 67 5 248 113 197 19 140 138 95 122 5 32 111 101 218 175 27 189 108 249 
49 44 219 27 47 129 19 239 100 99 25 57 79 206 222 60 19 58 151 203 49 125 223 233 233 199 43 129 96 180 75 230 243 220 17 142 99 249 191 49 40 217 105 219 45 217 99 135 192 25 240 200 102 149 199 178 111 235 146 245 253 104 33 219 210 163 74 165 143 87 212 242 199 170 84 43 150 23 206 34 4 51 171 100 117 124 166 219 0 237 220 208 198 126 31 232 187 84 40 167 
4 200 102 20 63 134 236 11 120 224 56 95 3 50 111 70 8 212 61 72 146 143 229 26 66 1 71 162 16 107 217 28 196 96 94 252 126 63 90 40 116 112 142 20 90 95 121 216 126 34 29 222 14 180 31 30 44 93 116 161 166 4 40 209 12 149 120 149 229 203 88 238 224 102 20 156 27 172 26 76 105 204 172 140 80 103 141 235 116 101 207 131 202 225 108 215 196 64 196 75 
79 70 181 145 69 69 221 214 72 44 52 146 144 160 39 191 43 83 202 89 62 204 218 103 55 233 147 4 16 161 41 17 131 111 86 134 98 116 86 164 217 24 194 227 109 206 28 109 98 74 131 125 224 47 231 241 160 39 35 113 67 217 222 219 195 41 176 9 38 64 58 111 188 74 79 187 175 235 109 13 47 192 250 53 104 135 158 204 44 198 46 250 101 113 241 165 193 122 81 22 
57 87 155 31 80 195 123 87 57 111 209 25 190 207 4 159 148 185 252 37 116 27 224 193 179 80 194 235 36 14 86 239 242 204 97 162 104 40 251 187 33 54 212 17 178 179 137 162 87 10 207 42 7 152 248 172 159 71 135 175 6 52 242 157 97 152 68 237 204 62 24 47 176 1 212 249 31 78 8 227 218 160 62 17 101 218 199 226 76 8 71 247 119 93 111 230 198 150 82 119 
186 115 45 61 103 244 132 219 142 36 17 209 120 13 61 146 7 159 181 84 18 40 223 205 250 161 39 220 24 6 236 184 97 215 169 52 248 24 233 64 251 221 74 155 191 191 153 235 211 200 186 174 126 162 2 62 7 60 135 207 0 9 75 176 101 31 147 40 200 88 97 57 89 201 235 181 244 14 114 93 171 91 230 105 209 213 177 219 8 140 21 87 89 41 117 227 94 159 130 112 
116 7 152 215 13 214 195 215 16 177 61 170 96 129 219 61 128 131 201 59 91 20 104 203 56 79 201 213 215 214 35 167 201 86 19 54 109 27 179 254 187 71 191 156 183 9 80 40 52 83 116 118 212 250 43 204 224 77 121 148 82 227 181 44 73 96 39 111 201 78 48 106 216 81 23 129 234 100 13 104 71 206 179 44 60 11 155 187 205 84 140 44 66 12 13 163 171 161 254 161 
226 79 195 30 121 52 178 168 168 42 114 134 203 100 92 252 75 52 143 190 44 125 217 175 15 53 19 241 91 120 27 114 235 30 137 227 101 59 214 230 147 146 240 201 5 230 151 142 177 9 108 64 92 195 17 182 148 235 195 69 117 171 76 135 16 221 53 69 151 144 153 149 192 252 16 64 236 13 224 11 146 63 46 238 245 134 179 219 163 97 175 11 205 226 186 142 234 90 10 21 
65 72 105 16 58 233 233 185 47 239 11 31 132 52 100 60 192 9 151 188 0 232 122 245 106 42 95 53 15 254 97 228 196 87 131 56 254 128 43 203 44 142 56 126 146 228 50 94 186 114 229 252 224 248 92 126 6 241 12 49 0 92 42 16 185 149 252 114 128 138 25 209 249 204 99 219 188 116 79 79 21 78 156 66 243 47 162 223 15 142 224 56 182 40 101 175 108 67 61 166 
36 116 7 102 222 111 215 115 243 170 5 78 182 12 13 184 87 202 44 24 167 57 214 7 33 59 39 37 91 126 0 66 68 209 97 234 216 32 183 2 33 113 52 219 56 127 94 141 33 175 110 106 166 13 54 221 32 145 25 21 58 79 86 181 48 88 37 133 24 111 246 201 159 215 80 191 231 95 137 243 87 229 240 223 23 12 158 254 136 77 248 103 241 30 161 117 168 97 100 158 
129 206 95 143 61 146 224 131 196 71 92 163 119 25 79 64 182 25 132 51 36 51 24 71 27 56 155 249 100 234 71 228 44 19 12 28 61 117 0 243 135 183 247 85 112 153 59 158 120 252 44 196 174 43 218 38 9 79 79 65 13 23 134 71 229 121 109 190 86 252 93 37 152 146 83 73 167 218 249 203 3 101 51 5 217 66 60 55 187 247 29 201 191 43 112 123 47 31 75 73 
52 73 61 109 21 160 56 192 242 116 224 94 176 96 6 70 74 170 71 115 109 172 55 26 143 146 231 124 188 6 187 16 245 154 244 228 78 11 194 4 161 163 93 51 143 228 230 97 153 183 31 23 8 74 39 58 3 217 226 5 246 148 45 237 46 90 113 107 201 227 102 219 112 198 240 232 226 200 111 48 212 227 247 161 44 18 200 182 19 178 107 151 121 23 95 63 100 17 177 162 
193 28 232 152 149 99 47 98 33 202 9 149 251 74 28 86 171 42 74 32 47 115 160 249 149 57 103 230 19 112 199 112 163 141 226 140 183 32 191 198 116 10 113 240 5 173 103 63 143 27 175 11 182 23 179 179 79 14 172 201 41 73 92 254 145 114 194 141 115 201 95 1 187 139 188 45 216 241 203 40 147 82 82 17 130 185 235 18 96 13 238 209 138 18 43 61 222 233 74 245 
89 78 94 192 9 54 81 180 213 32 79 32 166 162 92 204 219 158 35 40 52 144 188 109 140 231 2 220 151 247 143 38 236 196 32 120 35 88 233 119 201 227 138 251 235 191 206 97 254 171 198 200 234 85 123 140 252 8 68 211 119 3 124 0 165 225 158 96 132 34 148 232 124 144 170 211 59 68 124 114 32 232 218 15 218 128 227 165 24 86 106 92 113 87 77 105 240 131 228 115 
219 166 54 129 165 153 240 132 160 44 14 167 100 7 243 213 11 149 3 179 146 216 126 116 41 36 149 205 44 169 147 239 12 223 131 187 115 152 179 173 217 218 254 47 102 213 61 192 56 1 185 177 19 186 161 222 250 252 58 156 47 119 95 90 43 169 8 23 5 74 218 178 221 148 30 184 179 76 117 179 83 144 187 164 180 202 132 160 113 216 117 198 63 180 144 247 3 67 161 152 
241 142 227 188 80 129 16 121 205 4 109 214 1 245 19 15 133 125 112 133 80 19 85 67 25 205 130 85 20 82 5 71 192 107 224 55 143 49 205 41 43 58 13 153 25 200 155 251 137 103 63 153 139 236 58 141 236 82 165 65 15 223 55 46 112 9 245 83 169 148 32 6 54 209 205 171 167 130 7 248 184 195 225 49 77 7 218 164 95 118 254 206 91 86 21 221 112 181 94 131 
99 0 169 206 204 80 189 130 111 130 217 152 124 243 217 225 243 106 65 137 134 145 166 213 19 7 202 106 166 223 228 2 178 46 93 201 65 95 127 215 226 10 107 110 179 119 63 132 143 2 75 68 240 32 72 112 132 39 220 105 108 159 108 200 68 59 2 63 216 77 201 167 171 64 106 22 50 119 189 57 102 157 42 222 156 194 165 125 51 206 160 247 14 170 233 26 246 41 52 250 
78 140 101 179 38 47 214 171 191 189 148 223 114 111 100 104 126 59 144 34 212 248 194 181 204 96 229 121 222 221 227 79 78 49 51 2 225 198 133 82 148 58 22 160 96 144 82 243 126 242 242 67 84 8 192 70 221 63 254 46 67 162 84 142 252 119 162 90 36 214 32 46 227 127 43 101 18 251 162 23 247 118 73 14 79 63 237 208 106 238 229 69 32 36 29 147 238 59 187 201 
229 150 33 106 204 194 77 91 156 144 215 236 188 115 163 111 26 199 112 2 142 55 95 14 163 243 171 185 46 0 24 163 210 34 92 52 104 225 140 243 74 145 198 147 15 64 38 29 185 45 68 8 92 132 69 157 178 136 189 225 185 233 229 249 203 117 243 60 193 217 140 103 153 39 152 46 39 211 8 12 233 223 54 151 88 231 5 75 228 57 231 241 130 196 104 168 102 244 98 184 
215 205 131 175 184 219 77 100 177 72 24 247 24 53 107 231 251 150 31 52 4 197 146 208 238 125 116 74 105 101 115 228 156 5 190 9 144 159 180 223 206 224 52 225 103 100 216 53 52 232 42 56 145 78 247 234 216 38 117 194 209 242 199 250 247 233 155 119 57 197 244 78 19 254 81 137 45 138 74 63 225 92 78 250 65 215 169 179 143 115 105 181 208 42 213 192 68 12 141 64 
127 133 136 227 4 171 120 121 245 167 94 72 217 145 200 227 247 204 138 28 83 65 225 139 202 254 100 248 209 157 29 237 230 123 188 87 32 146 196 249 254 160 134 26 228 77 234 34 211 122 209 32 219 13 7 115 215 198 17 109 98 246 227 79 35 164 178 98 214 131 231 156 187 190 12 253 65 249 27 161 35 145 140 58 209 247 144 93 196 188 77 236 46 17 19 116 158 102 97 67 
12 241 37 51 208 44 135 69 158 34 208 154 234 40 25 107 211 73 206 253 17 254 219 200 94 11 108 180 246 8 18 190 150 118 212 212 154 123 232 194 34 119 28 130 224 55 45 57 242 232 35 207 116 143 88 86 20 42 71 170 125 179 98 152 68 204 99 220 167 31 114 206 102 80 155 22 240 28 206 171 55 101 132 142 83 212 45 239 225 209 16 180 55 122 196 158 85 213 208 107 
184 240 186 196 118 36 132 86 186 152 90 79 25 113 123 60 204 26 28 241 77 16 197 243 222 78 125 29 124 19 50 225 70 45 173 4 84 15 34 7 146 209 0 181 134 99 41 158 176 140 58 63 210 146 250 79 224 7 168 230 98 174 47 105 121 242 9 239 117 84 208 175 254 208 194 241 226 51 61 61 3 64 239 188 224 170 214 113 222 96 177 211 34 242 4 234 50 72 95 114 
66 87 1 28 187 132 123 30 131 128 254 229 253 169 121 84 91 209 21 198 47 249 219 62 77 81 129 151 2 21 152 115 23 32 57 222 57 188 212 213 49 12 73 43 140 163 231 244 24 161 5 2 218 86 188 132 102 219 11 224 175 165 238 229 198 221 18 74 26 174 78 186 44 188 136 95 79 110 161 141 98 89 10 26 158 221 188 9 102 204 26 127 180 42 112 187 147 96 56 117 
182 245 61 240 37 28 193 31 155 42 92 150 122 91 155 200 236 218 28 178 184 253 185 237 193 55 129 236 58 28 238 190 152 13 200 33 193 214 9 195 249 222 167 135 17 47 195 140 107 253 106 235 190 111 11 234 183 69 87 244 228 170 137 196 129 88 108 246 157 65 137 241 165 245 99 222 80 127 35 39 115 89 142 163 203 198 66 122 174 48 125 212 181 72 114 236 227 27 119 164 
69 79 129 140 17 61 195 158 207 27 108 30 19 228 66 204 166 202 167 226 111 57 210 14 65 87 166 222 231 127 142 222 59 28 66 61 222 232 209 203 161 244 103 61 137 125 18 94 13 103 151 48 248 5 9 41 16 218 55 6 232 145 41 94 244 100 52 113 232 142 106 112 198 37 111 18 79 223 98 81 173 172 1 48 253 154 168 51 33 251 201 20 117 69 19 93 221 11 79 91 
59 40 190 26 182 227 114 109 13 176 102 38 46 205 233 119 229 104 11 57 227 136 150 250 210 110 108 159 83 21 163 237 149 148 211 218 93 18 117 103 158 120 41 94 164 163 233 93 201 60 95 209 62 241 235 244 245 70 40 231 39 173 82 100 238 22 128 199 152 178 142 216 23 160 136 129 30 170 45 250 120 204 41 18 135 202 43 253 14 234 143 0 158 34 146 58 236 210 116 250 
187 107 105 95 61 249 181 152 28 128 116 176 117 48 62 150 142 206 201 212 246 221 60 51 117 99 45 49 237 85 46 145 15 136 68 223 7 183 54 52 16 234 19 162 118 101 73 127 147 89 80 253 70 132 159 210 89 136 3 207 129 12 131 173 76 120 244 125 37 239 229 102 99 209 241 182 102 203 201 112 76 233 91 194 67 39 124 180 107 203 131 220 108 201 155 116 34 204 223 163 
120 32 111 69 240 191 14 25 98 38 18 16 224 168 158 174 232 115 235 48 66 137 54 102 40 197 245 16 180 190 130 1 21 166 214 107 11 102 118 55 191 159 201 139 238 92 220 145 103 123 88 161 230 69 181 63 223 151 97 174 154 167 234 7 70 198 113 120 115 151 80 70 131 67 234 144 135 114 240 0 34 181 3 106 88 36 47 249 245 192 3 128 222 7 61 235 8 167 103 142 
226 205 83 60 230 129 196 212 47 123 70 82 48 248 126 110 9 238 230 241 251 33 84 188 127 127 176 41 14 85 185 211 5 35 76 83 218 46 120 15 95 45 224 36 221 5 177 151 95 149 49 65 188 1 161 155 113 215 15 254 186 63 55 243 123 214 27 14 0 3 126 122 4 95 211 212 42 249 218 210 178 41 248 77 179 9 11 91 154 250 184 236 43 56 7 157 216 206 52 43 
45 28 161 214 128 143 73 10 72 92 8 142 211 95 61 56 19 201 7 189 214 120 33 187 169 247 162 2 38 18 159 180 110 120 0 104 167 94 254 44 160 24 30 193 131 146 142 234 189 52 220 136 115 130 207 243 185 154 87 216 222 76 248 245 128 253 12 246 195 17 69 229 205 248 211 226 120 64 149 148 76 31 169 132 54 240 223 99 144 30 200 92 241 77 242 252 215 243 14 204 
144 16 130 168 32 176 53 112 92 10 10 165 12 68 222 1 210 188 254 29 150 102 106 76 196 137 79 29 24 136 31 187 64 233 46 39 26 84 161 107 204 182 60 210 125 66 192 206 246 134 115 247 107 187 135 105 175 153 103 236 30 201 174 21 120 77 214 91 116 221 206 86 219 47 141 149 84 28 230 194 64 145 18 12 94 72 61 124 125 183 167 200 120 174 128 50 207 144 30 127 
26 42 193 186 144 2 244 42 248 57 64 56 66 194 198 57 118 29 253 79 111 195 143 207 231 141 42 238 213 43 184 21 43 250 88 166 100 225 250 19 137 225 12 11 132 39 145 160 236 44 14 174 56 194 180 100 100 35 149 41 11 60 239 224 122 117 193 40 68 162 64 149 212 69 96 30 1 236 132 169 47 76 137 240 128 220 189 46 24 144 131 70 98 3 160 105 16 35 129 87 
148 64 117 57 96 117 37 213 166 101 71 124 221 186 92 105 101 220 104 23 98 90 134 172 71 227 188 123 38 114 238 200 41 214 97 203 228 106 150 157 216 137 150 137 207 22 200 244 244 179 132 80 84 104 131 73 22 105 73 39 46 178 183 156 77 42 94 96 78 124 71 98 239 243 191 2 14 97 227 240 180 115 244 75 180 7 183 10 159 64 223 65 202 26 217 241 190 30 217 200 
189 234 26 21 53 226 38 91 86 132 25 192 156 214 180 64 127 101 176 227 41 56 46 96 210 195 41 236 47 62 215 33 6 216 73 172 232 57 67 208 26 202 37 201 23 183 205 170 224 155 80 205 107 198 116 98 83 43 206 55 196 56 109 195 177 75 96 33 189 126 159 95 254 99 154 120 6 23 225 72 62 158 206 196 19 5 8 103 138 177 68 253 26 93 196 85 125 46 64 113 
217 220 220 74 221 225 94 58 60 151 164 157 43 76 54 71 66 175 82 82 108 30 219 239 188 162 156 56 87 206 158 158 88 163 172 23 196 189 42 2 131 1 94 112 116 100 229 216 13 39 208 76 33 152 183 195 46 36 70 149 102 96 132 174 201 197 214 16 117 210 139 199 149 65 107 204 23 139 144 2 253 114 149 64 131 46 80 48 100 158 42 92 2 119 205 170 175 217 181 67 
228 222 229 4 163 230 187 129 70 75 60 77 16 183 195 223 162 82 113 243 75 116 192 188 55 17 42 34 130 28 59 131 188 7 109 181 81 166 211 162 105 141 68 203 53 196 151 157 66 216 186 78 190 171 152 171 70 10 33 36 43 105 103 102 91 82 172 97 183 214 76 134 153 165 87 15 82 139 219 179 91 123 31 132 146 236 84 226 163 164 10 71 138 70 211 197 81 43 1 140 
225 116 81 72 165 69 120 49 192 159 114 156 151 87 230 221 11 134 170 222 119 8 17 166 243 88 170 192 227 226 29 192 208 31 35 198 17 7 126 203 77 59 81 25 88 110 48 168 99 234 100 97 31 191 183 221 171 235 171 184 14 171 5 14 245 155 21 165 145 101 19 128 184 57 1 46 46 166 102 181 201 176 225 239 170 55 83 143 239 237 169 211 251 155 147 134 60 80 144 204 
145 194 182 240 183 29 159 162 228 71 208 215 222 16 147 82 95 66 138 225 110 115 13 124 143 176 119 65 127 201 145 230 48 98 59 197 244 138 221 131 243 254 6 233 185 232 128 149 179 151 220 125 73 178 207 224 95 200 49 89 13 184 41 97 62 236 71 43 13 201 1 159 13 224 113 199 101 186 194 141 86 82 25 143 25 6 129 115 51 167 22 235 44 112 122 241 197 110 212 207 
143 199 98 13 19 222 210 208 93 45 8 203 167 238 101 75 231 108 70 105 137 244 209 29 147 231 61 14 125 215 53 231 130 150 111 162 157 213 63 234 149 10 21 45 186 209 185 229 181 9 83 189 19 59 223 146 237 188 64 113 86 252 136 171 222 234 41 252 248 0 29 126 116 62 61 202 89 191 226 24 244 162 246 46 182 234 21 119 221 46 97 27 241 150 71 85 18 156 165 124 
163 129 41 120 209 220 235 137 128 100 130 33 12 164 14 61 141 214 20 249 244 159 149 79 167 65 187 164 123 170 13 196 81 93 241 200 125 27 32 140 94 77 139 192 213 156 13 176 228 54 87 205 189 25 229 19 0 252 5 94 115 51 29 189 105 127 92 101 184 83 106 188 217 108 72 62 35 63 250 19 61 38 46 41 50 71 236 179 59 47 149 201 63 252 38 20 8 179 159 69 
186 130 242 72 10 26 85 99 181 225 242 178 205 35 58 197 194 248 93 191 204 30 51 50 30 239 16 184 125 171 72 102 43 203 242 160 188 15 163 124 196 129 163 33 0 146 111 99 211 162 248 137 88 247 249 104 64 26 209 222 75 252 53 72 43 243 184 121 241 106 119 218 123 58 81 179 111 60 152 195 189 92 153 167 186 77 88 190 202 43 249 253 42 160 26 241 201 229 39 77 
93 46 105 213 248 81 210 134 239 73 211 174 203 97 43 119 130 17 145 141 215 121 168 211 133 116 0 232 143 175 52 215 231 65 102 70 207 171 20 246 7 203 145 109 190 18 173 23 239 157 187 47 242 251 19 95 125 185 65 59 116 129 105 28 47 109 176 10 135 86 20 39 107 181 26 207 73 115 54 232 251 46 192 132 157 81 132 228 99 149 142 122 103 50 230 94 130 97 217 130 
27 126 229 252 141 221 5 168 21 171 235 21 208 225 98 241 205 57 216 110 192 145 107 185 75 61 220 167 103 48 205 150 248 247 48 163 142 129 192 205 62 135 12 6 75 191 48 93 234 153 128 68 209 28 174 146 244 189 19 68 21 206 72 173 5 185 174 135 66 190 143 25 210 245 102 107 127 174 146 52 210 250 2 250 131 5 133 33 46 247 226 199 248 152 89 54 22 94 49 91 
179 25 7 234 216 140 94 56 179 123 67 227 86 138 118 98 123 3 112 134 54 208 58 4 52 76 229 162 245 36 154 22 32 247 17 165 199 129 238 163 98 86 210 98 59 24 11 150 17 173 192 231 190 81 157 149 153 11 40 232 228 238 226 241 248 39 233 175 138 177 161 169 58 83 34 165 185 153 0 113 205 5 158 236 108 168 160 86 51 220 171 1 150 69 147 235 226 85 37 114 
130 157 151 135 156 235 232 42 127 167 44 19 243 103 8 194 219 41 238 234 61 171 80 106 48 82 77 71 185 150 40 222 3 231 133 66 33 123 50 112 45 254 120 224 118 29 203 153 151 71 71 181 39 68 205 37 206 100 67 9 136 98 44 229 85 216 52 159 146 67 220 249 215 128 225 130 122 78 140 166 38 30 249 96 23 218 42 183 128 110 188 124 146 148 64 253 52 92 254 44 
238 230 27 80 135 49 249 99 94 135 194 161 248 106 239 216 100 133 67 172 71 8 148 175 203 106 195 35 79 2 85 53 104 110 242 253 59 59 102 180 48 187 186 200 125 15 33 208 156 190 201 143 27 108 58 116 222 9 239 211 75 126 61 207 102 72 192 19 226 232 94 233 52 63 146 218 16 145 29 187 127 100 193 242 103 248 177 223 41 120 75 18 192 169 205 82 3 66 51 35 
99 173 49 59 225 76 65 30 130 155 6 211 129 57 6 109 138 50 17 206 60 162 53 228 186 126 52 215 140 19 75 70 22 156 64 38 99 0 11 218 28 123 18 22 202 226 65 24 215 61 132 219 93 215 94 214 186 158 176 190 6 81 225 24 72 239 127 104 153 219 141 93 22 163 138 67 57 236 244 17 23 103 201 236 134 75 78 118 50 203 22 43 165 122 160 55 185 3 249 135 
152 196 184 118 159 168 80 225 220 69 245 119 129 156 182 164 100 19 93 213 139 238 78 5 213 238 134 199 161 88 74 75 38 4 80 122 215 197 210 57 249 63 109 116 71 114 176 239 216 45 185 140 162 148 212 117 181 242 229 242 39 20 37 65 191 71 106 194 215 87 153 214 136 15 87 175 11 158 51 251 121 119 229 53 197 107 186 109 23 173 230 97 231 126 204 183 19 33 117 43 
41 97 63 13 181 80 133 214 228 124 78 185 144 53 55 237 186 200 163 159 1 45 3 197 117 6 28 195 132 5 47 21 199 7 112 112 99 130 155 28 223 10 37 98 154 14 214 90 185 163 198 130 45 225 9 82 210 186 254 189 172 205 44 228 167 21 241 217 162 6 19 53 120 233 238 235 202 141 194 159 108 23 115 81 11 31 28 62 124 209 121 64 84 183 84 3 46 247 24 102 
63 163 183 91 36 229 117 151 132 35 204 105 244 228 7 139 188 158 180 197 92 163 157 173 125 101 225 220 54 65 78 120 53 3 44 204 73 229 26 103 225 161 155 229 102 239 118 117 26 123 154 169 85 45 150 168 219 218 103 97 140 166 18 51 178 180 99 74 66 121 207 160 176 65 40 72 74 191 75 20 170 54 109 171 59 144 161 26 84 3 198 135 115 4 117 128 31 170 168 154 
95 84 28 77 242 157 192 199 27 129 159 52 48 179 161 147 215 17 143 173 132 170 183 197 34 85 32 14 17 186 149 7 226 76 156 59 93 180 133 29 200 131 166 100 27 188 123 47 231 151 70 211 187 131 71 154 64 61 202 77 214 31 155 220 132 221 127 253 217 234 238 9 183 186 161 247 19 124 25 202 156 178 61 64 253 161 84 5 237 3 196 114 111 119 2 236 109 38 7 107 
134 136 196 76 192 190 234 5 113 133 229 189 154 145 131 235 129 0 145 11 61 141 112 119 143 196 94 143 190 104 12 28 179 183 37 47 47 75 110 231 197 73 166 93 251 137 58 145 50 250 137 53 51 108 67 24 32 237 160 27 139 13 121 239 231 7 129 250 195 193 170 191 82 162 112 133 204 148 22 51 175 212 22 15 74 81 199 87 62 189 7 112 88 30 206 8 92 235 161 127 
48 163 55 111 141 76 176 22 141 79 224 148 205 177 230 170 239 19 29 249 57 98 39 237 162 73 157 203 126 187 156 14 31 26 57 30 34 104 35 243 53 120 246 60 20 28 127 27 7 169 243 8 23 237 105 251 89 226 15 99 111 52 225 254 172 241 110 182 109 122 220 132 170 247 74 120 189 130 185 122 101 53 20 206 14 88 12 3 93 225 222 190 6 242 51 44 102 153 167 232 
132 106 195 53 76 212 224 215 186 51 63 100 84 117 214 223 14 121 30 112 8 224 218 16 202 124 165 243 82 164 71 39 171 133 19 116 234 61 210 47 46 230 17 122 19 82 42 145 52 18 5 182 163 29 101 203 250 55 36 185 104 204 199 41 222 250 88 182 75 128 78 22 111 52 2 97 83 212 146 123 87 66 249 75 238 251 248 45 8 111 106 226 147 236 52 106 203 224 247 116 
38 21 20 233 11 154 59 192 185 169 163 250 125 19 10 39 157 4 157 51 25 211 139 91 180 4 172 41 84 46 167 39 168 146 248 74 63 121 183 69 97 164 9 178 230 235 21 73 85 223 117 30 6 247 237 145 31 183 102 105 16 191 114 79 116 182 230 154 128 152 70 33 89 59 1 133 128 30 79 178 177 93 177 245 221 84 202 119 156 79 41 113 201 213 183 113 158 225 218 131 
245 32 140 7 34 7 92 29 240 218 194 230 67 239 154 4 95 66 175 4 103 54 81 77 127 22 168 21 175 153 230 241 123 157 128 49 51 69 132 231 17 56 203 115 11 46 10 213 3 130 253 50 175 252 78 75 226 135 78 196 36 7 174 20 159 1 110 219 244 216 240 23 234 175 155 99 128 84 113 62 241 184 235 128 153 214 165 127 220 22 1 17 237 245 237 224 167 34 119 70 
70 71 176 157 193 34 182 201 16 192 82 84 135 234 5 113 190 28 238 191 133 148 113 13 114 87 111 142 136 185 142 55 120 58 102 55 136 80 244 186 23 117 196 112 215 7 35 12 168 201 214 169 45 52 34 81 9 193 149 152 240 100 122 118 210 1 200 95 104 98 4 207 105 27 116 50 167 89 123 90 216 125 157 25 84 144 104 121 128 235 86 65 189 37 215 80 142 139 32 215 
61 223 228 41 78 249 32 122 238 151 19 235 195 251 150 51 51 36 240 36 153 180 57 12 4 222 150 22 90 112 205 166 24 184 108 230 0 131 26 112 220 88 194 83 80 174 43 95 51 206 57 117 135 155 93 191 10 220 250 27 86 234 65 19 62 63 67 173 173 201 76 252 210 22 184 165 91 31 87 71 244 214 148 21 245 69 242 106 76 75 27 58 27 86 2 170 167 169 229 40 
123 131 47 80 102 50 246 126 179 254 43 219 200 99 169 174 127 124 63 90 250 189 228 205 177 55 170 191 127 147 36 4 254 10 211 91 96 238 83 126 158 33 203 207 53 129 115 113 183 45 28 37 247 166 150 183 23 50 231 103 167 121 164 243 67 95 92 84 190 243 118 68 211 126 239 25 245 160 64 18 161 103 246 34 91 98 68 92 190 16 126 121 53 191 222 43 72 36 128 53 
51 76 224 122 127 50 101 115 121 22 52 71 182 224 207 110 241 43 86 38 14 192 194 148 111 170 160 228 1 160 140 60 34 103 97 200 193 123 139 94 97 26 195 77 227 114 189 232 185 165 7 253 95 85 159 25 210 102 137 222 211 190 221 108 166 25 31 223 45 64 214 157 133 200 59 227 139 25 232 183 102 85 104 87 128 4 147 44 144 1 143 91 156 142 105 10 142 25 20 113 
76 7 207 182 111 163 185 205 1 244 14 64 96 35 92 166 51 165 175 182 141 108 122 30 42 65 181 33 217 129 14 179 25 123 18 118 221 13 176 84 142 77 254 48 66 94 27 100 173 57 156 102 98 253 231 113 62 174 221 126 62 210 45 99 4 110 79 107 194 206 104 192 111 135 34 120 219 55 49 139 26 96 18 172 217 114 72 163 17 209 17 53 165 240 232 187 113 83 201 103 
197 149 122 228 87 178 111 75 176 194 126 159 150 224 96 189 118 103 95 134 205 201 19 155 46 33 11 2 57 194 91 4 192 112 213 19 232 0 244 162 248 123 180 35 181 164 104 147 107 94 72 238 19 216 59 75 168 17 49 252 167 246 112 154 193 85 62 36 62 194 83 186 31 189 221 159 124 57 161 234 162 62 109 55 115 230 244 162 154 78 204 118 124 208 135 75 13 27 200 241 
